<?xml version="1.0" encoding="UTF-8"?>
<svg width="600px" height="350px" viewBox="0 0 600 350" version="1.1" xmlns="http://www.w3.org/2000/svg" xmlns:xlink="http://www.w3.org/1999/xlink">
    <!-- Generator: Sketch 57.1 (83088) - https://sketch.com -->
    <title>Artboard</title>
    <desc>Created with Sketch.</desc>
    <g id="Artboard" stroke="none" stroke-width="1" fill="none" fill-rule="evenodd">
        <rect fill="#2B84E1" x="0" y="0" width="600" height="350"></rect>
        <g id="Group" transform="translate(38.000000, 86.000000)">
            <g id="react" fill-rule="nonzero">
                <path d="M0.0290800357,89.188089 C0.0290800357,104.216599 14.6965185,118.245555 37.8198372,126.15361 C33.2022089,149.411628 36.992776,168.158355 49.6519721,175.46261 C62.6637247,182.970999 82.0488517,177.773786 100.448228,161.681587 C118.383262,177.123841 136.509036,183.200944 149.157288,175.875572 C162.157315,168.346065 166.11048,148.328386 161.365431,124.343775 C185.450267,116.377061 198.922453,104.414477 198.922453,89.188089 C198.922453,74.5084059 184.228436,61.8090604 161.416243,53.9518439 C166.524792,28.976282 162.196401,10.6847508 149.012669,3.07859602 C136.302661,-4.25459749 117.965823,2.13691887 99.7673487,17.9827487 C80.8340567,1.16395676 62.6785774,-3.97068652 49.5089171,3.65658557 C36.8106349,11.0108964 33.1873562,30.0986298 37.8198372,53.7868158 C15.4766764,61.5806802 0.0290800357,74.5678473 0.0290800357,89.188089 Z" id="Path" fill="#2B84E1"></path>
                <path d="M156.585204,61.7543117 C154.70514,61.109081 152.809124,60.5113487 150.898963,59.9616838 C151.215737,58.6738431 151.508672,57.3802496 151.777618,56.0815672 C156.081776,35.1769601 153.267579,18.3362687 143.657096,12.7925746 C134.442946,7.47569648 119.372921,13.0193906 104.152806,26.2709155 C102.65306,27.5796771 101.186604,28.9261419 99.7548412,30.3090211 C98.7960286,29.3894884 97.820273,28.4878056 96.8280763,27.6044367 C80.8770513,13.4339162 64.8885037,7.4631825 55.2881834,13.0233012 C46.0826323,18.3550397 43.3559881,34.1875734 47.230981,53.9987713 C47.6165157,55.9606579 48.0518145,57.9124262 48.5364557,59.8521865 C46.274154,60.4950923 44.0892427,61.1802328 41.9989197,61.9091723 C23.2985806,68.4320854 11.3554413,78.6560088 11.3554413,89.2600444 C11.3554413,100.212907 24.175672,111.198619 43.6546056,117.859186 C45.2340595,118.396764 46.8266599,118.894871 48.4309233,119.353043 C47.9097512,121.442831 47.4470521,123.546783 47.0433679,125.662436 C43.3489526,145.1295 46.2342862,160.586614 55.4156039,165.885503 C64.8986661,171.35646 80.8145136,165.732989 96.3129219,152.178782 C97.5378793,151.107272 98.7675271,149.970846 99.9987382,148.779672 C101.549534,150.276703 103.141737,151.730193 104.773492,153.138448 C119.78567,166.063045 134.611798,171.282158 143.785298,165.96919 C153.259762,160.481809 156.338181,143.876537 152.340457,123.673495 C152.035586,122.130365 151.679903,120.554385 151.281225,118.949467 C152.399086,118.619411 153.495842,118.278405 154.566018,117.92332 C174.815729,111.211133 187.99008,100.359164 187.99008,89.2600444 C187.99008,78.6176847 175.662333,68.3249345 156.585204,61.7543117 Z" id="Path" fill="#FFFFFF"></path>
                <path d="M152.192712,110.757501 C151.227286,111.07739 150.236063,111.386329 149.226079,111.685882 C146.990356,104.605315 143.972912,97.0758083 140.281623,89.2975863 C143.804841,81.7031635 146.705028,74.2706402 148.878213,67.2354359 C150.684771,67.7594589 152.438954,68.3108562 154.129036,68.8935385 C170.47483,74.5224841 180.444905,82.8466286 180.444905,89.2600444 C180.444905,96.0918965 169.676693,104.961181 152.193494,110.757501 L152.192712,110.757501 Z M144.938338,125.139977 C146.70581,134.073396 146.958306,142.15039 145.787287,148.464476 C144.73509,154.138002 142.619752,157.920354 140.004112,159.435328 C134.437474,162.659242 122.532639,158.468622 109.69521,147.415648 C108.223229,146.148607 106.740304,144.795533 105.253469,143.364246 C110.23069,137.917535 115.204783,131.58546 120.059273,124.554167 C128.598797,123.796289 136.666162,122.556622 143.982292,120.864888 C144.341884,122.319639 144.66239,123.745451 144.938338,125.139977 L144.938338,125.139977 Z M71.5737851,158.878455 C66.1353494,160.800134 61.8038311,160.854882 59.1858462,159.344601 C53.6137361,156.130072 51.2982774,143.717766 54.4572135,127.070259 C54.8328619,125.102874 55.2629741,123.14629 55.7470538,121.202766 C62.9818853,122.803773 70.9906209,123.955842 79.5504701,124.650368 C84.4370105,131.530712 89.5549405,137.854965 94.7127382,143.393185 C93.6165688,144.454107 92.4944587,145.487867 91.3474276,146.493524 C84.4940762,152.487721 77.6266538,156.739347 71.5745668,158.878455 L71.5737851,158.878455 Z M46.0951398,110.715267 C37.4821335,107.769788 30.3692506,103.942074 25.4936543,99.7655324 C21.1128876,96.0113377 18.9006161,92.2845174 18.9006161,89.2600444 C18.9006161,82.8255112 28.4899924,74.6171211 44.4832303,69.0382314 C46.490612,68.3410598 48.5179628,67.702834 50.5626776,67.1243743 C52.7733856,74.3175676 55.6727903,81.8384709 59.1717752,89.4438435 C55.6274504,97.1626241 52.6866146,104.803192 50.4555817,112.080855 C48.9911372,111.661474 47.5372175,111.20614 46.0951398,110.715267 L46.0951398,110.715267 Z M54.6362277,52.5487136 C51.316257,35.574279 53.5207113,22.770129 59.068588,19.5571641 C64.9784017,16.13459 78.0448747,21.015043 91.8172422,33.2498069 C92.6974605,34.0319308 93.5815874,34.8508145 94.4672777,35.6978546 C89.3360585,41.2110459 84.2650318,47.48759 79.4207044,54.3280455 C71.1133512,55.0984375 63.1608995,56.3357575 55.850241,57.993078 C55.3999096,56.1885224 54.99511,54.372897 54.6362277,52.5479315 L54.6362277,52.5487136 Z M130.828266,71.3720891 C129.101504,68.3878407 127.310686,65.4411572 125.457059,62.5340892 C131.09327,63.245822 136.49262,64.1921919 141.562865,65.3505173 C140.040853,70.2317525 138.143615,75.3358929 135.909455,80.5683017 C134.277078,77.4693625 132.583011,74.4033471 130.828266,71.3720891 L130.828266,71.3720891 Z M99.7571863,41.0929452 C103.23741,44.8651286 106.723106,49.0776479 110.151736,53.6475977 C103.196769,53.3187773 96.230198,53.3172113 89.2750842,53.642905 C92.7068411,49.1151898 96.2222422,44.9089276 99.7571863,41.0929452 L99.7571863,41.0929452 Z M68.4867673,71.4237093 C66.7539928,74.4308598 65.0916005,77.478062 63.5009483,80.5628268 C61.3035295,75.3484069 59.4234895,70.2215849 57.8881887,65.2707407 C62.9279465,64.1421359 68.3022811,63.2200119 73.9017514,62.520011 C72.0273502,65.4450953 70.2218579,68.4138129 68.4867673,71.4237093 L68.4867673,71.4237093 Z M74.062786,116.538961 C68.2780477,115.892927 62.8224141,115.01773 57.7842198,113.92041 C59.3437539,108.881968 61.2652251,103.644867 63.5095472,98.3186032 C65.1069052,101.405655 66.7766025,104.454695 68.5172544,107.463196 C70.2934125,110.532115 72.1424484,113.55823 74.062786,116.538961 L74.062786,116.538961 Z M99.9659059,137.960552 C96.3895306,134.099207 92.8225359,129.82881 89.3384037,125.235397 C92.7201304,125.368358 96.1683034,125.43562 99.6727604,125.43562 C103.273369,125.43562 106.832547,125.355062 110.33544,125.198637 C106.895866,129.875738 103.422678,134.152391 99.9659059,137.960552 Z M135.981374,98.0472062 C138.342172,103.431347 140.332435,108.640292 141.913076,113.593483 C136.791237,114.762758 131.262122,115.704435 125.435952,116.403654 C127.302978,113.442309 129.110936,110.444096 130.858754,107.410793 C132.635517,104.328009 134.34348,101.206041 135.981374,98.0472062 L135.981374,98.0472062 Z M124.321999,103.639392 C121.646323,108.289866 118.82021,112.852059 115.848139,117.318739 C110.607479,117.693376 105.191713,117.886561 99.6727604,117.886561 C94.1764773,117.886561 88.829503,117.715275 83.6803042,117.381309 C80.6311502,112.925029 77.7515749,108.35494 75.0477549,103.680845 C72.356573,99.0315477 69.8428303,94.2816761 67.5119607,89.4414971 C69.8369017,84.5998682 72.3430483,79.8474521 75.025085,75.1943285 L75.025085,75.1958928 C77.7062803,70.5417782 80.5631859,65.9912301 83.5896246,61.554088 C88.8427923,61.1567691 94.2288527,60.9487241 99.6735421,60.9487241 C105.142465,60.9487241 110.535561,61.1583333 115.787165,61.5587808 C118.782992,65.9890949 121.621625,70.5238032 124.297766,75.1544402 C126.989025,79.7972115 129.528618,84.5263478 131.912514,89.3343462 C129.55314,94.1913305 127.021624,98.9627031 124.322781,103.639392 L124.321999,103.639392 Z M139.888417,19.3326945 C145.802921,22.7458831 148.103527,36.5089171 144.387224,54.5579899 C144.14364,55.7337779 143.878854,56.905069 143.592995,58.0712904 C136.265139,56.3795564 128.307215,55.120337 119.975628,54.3382131 C115.12192,47.4234559 110.093107,41.135962 105.04475,35.693944 C106.367628,34.4179464 107.721987,33.1750288 109.106574,31.9663416 C122.14725,20.6114671 134.335069,16.128333 139.888417,19.3326945 L139.888417,19.3326945 Z" id="Shape" fill="#2B84E1"></path>
                <path d="M99.6727604,73.4791308 C108.384264,73.4791308 115.445553,80.544838 115.445553,89.2600444 C115.445553,97.9760329 108.384264,105.04174 99.6727604,105.04174 C90.962039,105.04174 83.8999679,97.9760329 83.8999679,89.2600444 C83.8999679,80.544838 90.962039,73.4791308 99.6727604,73.4791308" id="Path" fill="#FFFFFF"></path>
            </g>
            <g id="Group-2" transform="translate(220.000000, 9.000000)" fill="#FFFFFF">
                <text id="Saint-Louis-React-Me" font-family="Avenir-Medium, Avenir" font-size="35" font-weight="400" line-spacing="50">
                    <tspan x="20.25" y="35">Saint Louis</tspan>
                    <tspan x="190.77" y="35" font-family="Avenir-Heavy, Avenir" font-size="45" font-weight="600"></tspan>
                    <tspan x="0" y="73.3296814" font-family="Avenir-Heavy, Avenir" font-size="45" font-weight="600">React Meetup</tspan>
                </text>
                <text id="2816-Sutton-Blvd.-2n" font-family="Avenir-Heavy, Avenir" font-size="14" font-weight="600" line-spacing="21" letter-spacing="1.86666667">
                    <tspan x="0" y="134">2816 SUTTON BLVD. 2ND FLOOR</tspan>
                    <tspan x="0" y="155">MAPLEWOOD, MO</tspan>
                </text>
            </g>
        </g>
    </g>
</svg>